<svg width="187" height="135" viewBox="0 0 187 135" fill="none" xmlns="http://www.w3.org/2000/svg">
<g clip-path="url(#clip0_0_90)">
<path d="M61.9152 56.8704L62.2473 57.5371L63.9813 61.0183L63.9814 61.0185C66.6371 66.3566 71.9717 69.6664 77.9094 69.6664C81.3364 69.6664 84.4158 71.5812 85.945 74.6528L85.9451 74.6531L87.2195 77.2184L61.9152 56.8704ZM61.9152 56.8704L61.4239 57.4303M61.9152 56.8704L61.4239 57.4303M61.4239 57.4303C57.3209 62.1065 54.2294 67.6815 52.4858 73.8407L52.3057 74.4769H52.9669H57.9947C64.5328 74.4769 70.2062 78.9259 71.7906 85.3001L71.7906 85.3003L72.0593 86.3794L72.0593 86.3796C72.697 88.9374 74.5646 90.9613 77.052 91.7954L77.0521 91.7954C81.693 93.3503 85.1662 97.1182 86.3515 101.884L86.3516 101.884L86.6202 102.961C87.4719 106.381 90.5163 108.771 94.0301 108.771H95.2102C99.6612 108.771 103.918 110.907 106.586 114.487L106.586 114.487L112.596 122.536L112.856 122.884L113.237 122.675C117.624 120.272 121.511 117.086 124.781 113.349L125.206 112.863L124.629 112.573L123.401 111.955L123.176 112.402L123.401 111.955C116.71 108.591 112.555 101.841 112.555 94.328C112.555 90.279 113.696 86.4961 115.849 83.2492C119.493 77.7565 125.597 74.4769 132.17 74.4769H133.2H133.861L133.681 73.8409C132.92 71.1482 131.902 68.5724 130.655 66.1288L130.516 65.856H130.21H122.746C118.114 65.856 114.096 69.1647 113.184 73.7264L113.184 73.7269M61.4239 57.4303L113.184 73.7269M113.184 73.7269C111.896 80.209 106.182 84.9084 99.6081 84.9084C94.3265 84.9084 89.5828 81.9635 87.2197 77.2189L113.184 73.7269ZM51.5442 81.0979H51.0871L51.0462 81.5532C50.9324 82.8194 50.8515 84.1006 50.8515 85.4084C50.8515 108.793 69.7968 127.824 93.0853 127.824C97.5779 127.824 101.902 127.102 105.968 125.788L106.633 125.573L106.215 125.013L101.32 118.455C101.32 118.455 101.32 118.455 101.32 118.455C99.8868 116.533 97.6061 115.389 95.2139 115.389H94.0338C87.4919 115.389 81.8185 110.939 80.2342 104.569L80.2341 104.569L79.9655 103.49L79.9655 103.49C79.3278 100.932 77.4602 98.908 74.9731 98.0721L74.9725 98.0718C70.3317 96.5188 66.8586 92.751 65.6733 87.9855L65.6732 87.9855L65.4046 86.9063L65.4046 86.9062C64.5528 83.4884 61.5084 81.0979 57.9947 81.0979H51.5442ZM128.701 107.216L129.118 107.426L129.356 107.025C133.118 100.683 135.319 93.3098 135.319 85.4084C135.319 84.1007 135.238 82.8197 135.128 81.5546L135.089 81.0979H134.63H132.176C127.806 81.0979 123.75 83.2772 121.333 86.9258C119.9 89.0858 119.143 91.5932 119.143 94.1829C119.143 99.3119 121.903 103.796 126.347 106.031L128.701 107.216ZM125.255 59.235H126.314L125.64 58.417C117.886 49.0065 106.173 42.993 93.0853 42.993C83.3533 42.993 74.4116 46.3496 67.2631 51.9197L66.9405 52.171L67.1229 52.537L69.8738 58.0592C71.4029 61.1307 74.4824 63.0455 77.9094 63.0455C83.8471 63.0455 89.1817 66.3553 91.8374 71.6916L93.1118 74.257L93.1122 74.2579C94.3504 76.7391 96.8405 78.2874 99.6081 78.2874C103.061 78.2874 106.052 75.8196 106.729 72.4244C108.253 64.7809 114.992 59.235 122.75 59.235H125.255ZM141.907 85.4084C141.907 112.448 120.002 134.445 93.0853 134.445C66.1683 134.445 44.2635 112.448 44.2635 85.4084C44.2635 58.369 66.1683 36.3721 93.0853 36.3721C120.002 36.3721 141.907 58.369 141.907 85.4084Z" fill="#C9C9C9" stroke="white"/>
<path d="M89.7913 14.587V13.3762L88.937 14.2342L84.3858 18.8052L79.7265 14.1256L93.0853 0.708646L106.444 14.1256L101.785 18.8052L97.2336 14.2342L96.3793 13.3762V14.587V27.7512H89.7913V14.587Z" fill="#C9C9C9" stroke="white"/>
<path d="M14.5231 98.8254L1.1643 85.4084L14.5231 71.9915L19.1825 76.6711L14.6283 81.2452L13.7792 82.0979H14.9826H35.6755V88.7189H14.9826H13.7792L14.6283 89.5717L19.1825 94.1457L14.5231 98.8254Z" fill="#C9C9C9" stroke="white"/>
<path d="M171.648 71.9915L185.006 85.4084L171.648 98.8254L166.988 94.1457L171.542 89.5717L172.391 88.7189H171.188H150.495V82.0979H171.188H172.391L171.542 81.2452L166.988 76.6711L171.648 71.9915Z" fill="#C9C9C9" stroke="white"/>
<path d="M140.836 31.5616H135.319V24.9407H153.289V42.9931H146.701V37.4499V36.2391L145.847 37.0971L137.502 45.4786L132.842 40.799L141.191 32.4144L142.04 31.5616H140.836Z" fill="#C9C9C9" stroke="white"/>
<path d="M40.3238 37.0971L39.4695 36.2391V37.4499V42.9931H32.8815V24.9407H50.8515V31.5616H45.3345H44.131L44.9801 32.4144L53.3284 40.799L48.669 45.4786L40.3238 37.0971Z" fill="#C9C9C9" stroke="white"/>
</g>
<defs>
<clipPath id="clip0_0_90">
<rect x="0.0284424" width="186.114" height="135" rx="20" fill="white"/>
</clipPath>
</defs>
</svg>
