<svg width="1588" height="2145" viewBox="0 0 1588 2145" fill="none" xmlns="http://www.w3.org/2000/svg">
<path d="M431.316 712.189C679.169 723.068 461.826 941.499 651.22 1068.2C824.789 1184.31 1125.02 925.141 1165.34 1290.89C1192.94 1541.29 1273.76 1634.31 1479.09 1688.02" stroke="#F2F2F2" stroke-width="1.75246"/>
<path d="M442.54 698.73C690.393 709.609 473.05 928.04 662.443 1054.74C836.012 1170.85 1136.25 911.682 1176.56 1277.43C1204.16 1527.83 1284.99 1620.85 1490.31 1674.56" stroke="#F2F2F2" stroke-width="1.75246"/>
<path d="M453.763 685.271C701.616 696.15 484.273 914.581 673.667 1041.28C847.236 1157.39 1147.47 898.223 1187.79 1263.97C1215.39 1514.37 1296.21 1607.39 1501.53 1661.1" stroke="#F2F2F2" stroke-width="1.75246"/>
<path d="M464.987 671.811C712.84 682.691 495.497 901.122 684.89 1027.82C858.459 1143.93 1158.7 884.764 1199.01 1250.51C1226.61 1500.92 1307.43 1593.93 1512.76 1647.64" stroke="#F2F2F2" stroke-width="1.75246"/>
<path d="M476.21 658.352C724.063 669.232 506.72 887.663 696.114 1014.36C869.683 1130.47 1169.92 871.305 1210.23 1237.05C1237.83 1487.46 1318.66 1580.47 1523.98 1634.18" stroke="#F2F2F2" stroke-width="1.75246"/>
<path d="M487.434 644.893C735.287 655.773 517.944 874.204 707.338 1000.9C880.906 1117.01 1181.14 857.846 1221.46 1223.59C1249.06 1474 1329.88 1567.01 1535.2 1620.72" stroke="#F2F2F2" stroke-width="1.75246"/>
<path d="M498.657 631.434C746.51 642.314 529.167 860.745 718.561 987.442C892.13 1103.55 1192.37 844.387 1232.68 1210.13C1260.28 1460.54 1341.1 1553.55 1546.43 1607.26" stroke="#F2F2F2" stroke-width="1.75246"/>
<path d="M509.881 617.975C757.734 628.855 540.391 847.286 729.785 973.983C903.353 1090.09 1203.59 830.928 1243.9 1196.67C1271.5 1447.08 1352.33 1540.1 1557.65 1593.81" stroke="#F2F2F2" stroke-width="1.75246"/>
<path d="M521.104 604.516C768.957 615.396 551.614 833.827 741.008 960.524C914.577 1076.63 1214.81 817.469 1255.13 1183.21C1282.73 1433.62 1363.55 1526.64 1568.87 1580.35" stroke="#F2F2F2" stroke-width="1.75246"/>
<path d="M532.328 591.057C780.181 601.936 562.838 820.368 752.232 947.065C925.801 1063.18 1226.04 804.01 1266.35 1169.75C1293.95 1420.16 1374.77 1513.18 1580.1 1566.89" stroke="#F2F2F2" stroke-width="1.75246"/>
<path d="M543.551 577.598C791.404 588.477 574.061 806.909 763.455 933.606C937.024 1049.72 1237.26 790.551 1277.57 1156.3C1305.17 1406.7 1386 1499.72 1591.32 1553.43" stroke="#F2F2F2" stroke-width="1.75246"/>
<path d="M554.775 564.139C802.628 575.018 585.285 793.45 774.679 920.147C948.248 1036.26 1248.48 777.092 1288.8 1142.84C1316.4 1393.24 1397.22 1486.26 1602.54 1539.97" stroke="#F2F2F2" stroke-width="1.75246"/>
<path d="M565.999 550.68C813.852 561.559 596.509 779.991 785.902 906.688C959.471 1022.8 1259.71 763.633 1300.02 1129.38C1327.62 1379.78 1408.44 1472.8 1613.77 1526.51" stroke="#F2F2F2" stroke-width="1.75246"/>
<path d="M577.222 537.221C825.075 548.101 607.732 766.532 797.126 893.229C970.695 1009.34 1270.93 750.174 1311.24 1115.92C1338.84 1366.32 1419.67 1459.34 1624.99 1513.05" stroke="#F2F2F2" stroke-width="1.75246"/>
<path d="M588.446 523.762C836.299 534.641 618.956 753.073 808.349 879.77C981.918 995.881 1282.15 736.715 1322.47 1102.46C1350.07 1352.87 1430.89 1445.88 1636.22 1499.59" stroke="#F2F2F2" stroke-width="1.75246"/>
<path d="M599.669 510.303C847.522 521.182 630.179 739.614 819.573 866.311C993.142 982.422 1293.38 723.256 1333.69 1089C1361.29 1339.41 1442.11 1432.42 1647.44 1486.13" stroke="#F2F2F2" stroke-width="1.75246"/>
<path d="M610.893 496.844C858.746 507.723 641.403 726.155 830.796 852.852C1004.37 968.963 1304.6 709.797 1344.91 1075.54C1372.52 1325.95 1453.34 1418.96 1658.66 1472.67" stroke="#F2F2F2" stroke-width="1.75246"/>
<path d="M622.116 483.385C869.969 494.264 652.626 712.696 842.02 839.393C1015.59 955.504 1315.82 696.338 1356.14 1062.08C1383.74 1312.49 1464.56 1405.51 1669.89 1459.22" stroke="#F2F2F2" stroke-width="1.75246"/>
<path d="M633.34 469.926C881.193 480.805 663.85 699.236 853.244 825.934C1026.81 942.044 1327.05 682.878 1367.36 1048.62C1394.96 1299.03 1475.79 1392.05 1681.11 1445.76" stroke="#F2F2F2" stroke-width="1.75246"/>
<path d="M644.563 456.467C892.416 467.346 675.073 685.778 864.467 812.475C1038.04 928.585 1338.27 669.419 1378.59 1035.16C1406.19 1285.57 1487.01 1378.59 1692.33 1432.3" stroke="#F2F2F2" stroke-width="1.75246"/>
</svg>
