<svg width="188" height="31" viewBox="0 0 188 31" fill="none" xmlns="http://www.w3.org/2000/svg">
<path d="M-0.239999 30.28C-2.88 30.28 -5.30667 29.6667 -7.52 28.44C-9.70667 27.2133 -11.4533 25.5067 -12.76 23.32C-14.04 21.1067 -14.68 18.6267 -14.68 15.88C-14.68 13.1333 -14.04 10.6667 -12.76 8.48C-11.4533 6.29333 -9.70667 4.58667 -7.52 3.36C-5.30667 2.13333 -2.88 1.52 -0.239999 1.52C2.4 1.52 4.81333 2.13333 7 3.36C9.21334 4.58667 10.9467 6.29333 12.2 8.48C13.48 10.6667 14.12 13.1333 14.12 15.88C14.12 18.6267 13.48 21.1067 12.2 23.32C10.92 25.5067 9.18667 27.2133 7 28.44C4.81333 29.6667 2.4 30.28 -0.239999 30.28ZM-0.239999 24.04C2 24.04 3.78667 23.2933 5.12 21.8C6.48 20.3067 7.16 18.3333 7.16 15.88C7.16 13.4 6.48 11.4267 5.12 9.96C3.78667 8.46666 2 7.72 -0.239999 7.72C-2.50667 7.72 -4.32 8.45333 -5.68 9.92C-7.01333 11.3867 -7.68 13.3733 -7.68 15.88C-7.68 18.36 -7.01333 20.3467 -5.68 21.84C-4.32 23.3067 -2.50667 24.04 -0.239999 24.04ZM36.2053 1.92V7.4H24.7653V13.32H33.3253V18.64H24.7653V30H17.9253V1.92H36.2053ZM58.0803 1.92V7.4H46.6403V13.32H55.2003V18.64H46.6403V30H39.8003V1.92H58.0803Z" fill="white"/>
<path d="M71.8353 30.28C69.782 30.28 67.942 29.9467 66.3153 29.28C64.6886 28.6133 63.382 27.6267 62.3953 26.32C61.4353 25.0133 60.9286 23.44 60.8753 21.6H68.1553C68.262 22.64 68.622 23.44 69.2353 24C69.8486 24.5333 70.6486 24.8 71.6353 24.8C72.6486 24.8 73.4486 24.5733 74.0353 24.12C74.622 23.64 74.9153 22.9867 74.9153 22.16C74.9153 21.4667 74.6753 20.8933 74.1953 20.44C73.742 19.9867 73.1686 19.6133 72.4753 19.32C71.8086 19.0267 70.8486 18.6933 69.5953 18.32C67.782 17.76 66.302 17.2 65.1553 16.64C64.0086 16.08 63.022 15.2533 62.1953 14.16C61.3686 13.0667 60.9553 11.64 60.9553 9.88C60.9553 7.26667 61.902 5.22667 63.7953 3.76C65.6886 2.26667 68.1553 1.52 71.1953 1.52C74.2886 1.52 76.782 2.26667 78.6753 3.76C80.5686 5.22667 81.582 7.28 81.7153 9.92H74.3153C74.262 9.01333 73.9286 8.30667 73.3153 7.8C72.702 7.26667 71.9153 7 70.9553 7C70.1286 7 69.462 7.22667 68.9553 7.68C68.4486 8.10666 68.1953 8.73333 68.1953 9.56C68.1953 10.4667 68.622 11.1733 69.4753 11.68C70.3286 12.1867 71.662 12.7333 73.4753 13.32C75.2886 13.9333 76.7553 14.52 77.8753 15.08C79.022 15.64 80.0086 16.4533 80.8353 17.52C81.662 18.5867 82.0753 19.96 82.0753 21.64C82.0753 23.24 81.662 24.6933 80.8353 26C80.0353 27.3067 78.862 28.3467 77.3153 29.12C75.7686 29.8933 73.942 30.28 71.8353 30.28ZM100.005 7.44C102.565 7.44 104.618 8.29333 106.165 10C107.711 11.68 108.485 14 108.485 16.96V30H101.685V17.88C101.685 16.3867 101.298 15.2267 100.525 14.4C99.7514 13.5733 98.7114 13.16 97.4047 13.16C96.098 13.16 95.058 13.5733 94.2847 14.4C93.5114 15.2267 93.1247 16.3867 93.1247 17.88V30H86.2847V0.4H93.1247V10.68C93.818 9.69333 94.7647 8.90666 95.9647 8.32C97.1647 7.73333 98.5114 7.44 100.005 7.44ZM123.398 30.32C121.211 30.32 119.238 29.8533 117.478 28.92C115.744 27.9867 114.371 26.6533 113.358 24.92C112.371 23.1867 111.878 21.16 111.878 18.84C111.878 16.5467 112.384 14.5333 113.398 12.8C114.411 11.04 115.798 9.69333 117.558 8.76C119.318 7.82667 121.291 7.36 123.478 7.36C125.664 7.36 127.638 7.82667 129.398 8.76C131.158 9.69333 132.544 11.04 133.558 12.8C134.571 14.5333 135.078 16.5467 135.078 18.84C135.078 21.1333 134.558 23.16 133.518 24.92C132.504 26.6533 131.104 27.9867 129.318 28.92C127.558 29.8533 125.584 30.32 123.398 30.32ZM123.398 24.4C124.704 24.4 125.811 23.92 126.718 22.96C127.651 22 128.118 20.6267 128.118 18.84C128.118 17.0533 127.664 15.68 126.758 14.72C125.878 13.76 124.784 13.28 123.478 13.28C122.144 13.28 121.038 13.76 120.158 14.72C119.278 15.6533 118.838 17.0267 118.838 18.84C118.838 20.6267 119.264 22 120.118 22.96C120.998 23.92 122.091 24.4 123.398 24.4ZM145.547 11.4C146.347 10.1733 147.347 9.21333 148.547 8.52C149.747 7.8 151.08 7.44 152.547 7.44V14.68H150.667C148.96 14.68 147.68 15.0533 146.827 15.8C145.973 16.52 145.547 17.8 145.547 19.64V30H138.707V7.68H145.547V11.4ZM176.856 18.48C176.856 19.12 176.816 19.7867 176.736 20.48H161.256C161.363 21.8667 161.803 22.9333 162.576 23.68C163.376 24.4 164.349 24.76 165.496 24.76C167.203 24.76 168.389 24.04 169.056 22.6H176.336C175.963 24.0667 175.283 25.3867 174.296 26.56C173.336 27.7333 172.123 28.6533 170.656 29.32C169.189 29.9867 167.549 30.32 165.736 30.32C163.549 30.32 161.603 29.8533 159.896 28.92C158.189 27.9867 156.856 26.6533 155.896 24.92C154.936 23.1867 154.456 21.16 154.456 18.84C154.456 16.52 154.923 14.4933 155.856 12.76C156.816 11.0267 158.149 9.69333 159.856 8.76C161.563 7.82667 163.523 7.36 165.736 7.36C167.896 7.36 169.816 7.81333 171.496 8.72C173.176 9.62667 174.483 10.92 175.416 12.6C176.376 14.28 176.856 16.24 176.856 18.48ZM169.856 16.68C169.856 15.5067 169.456 14.5733 168.656 13.88C167.856 13.1867 166.856 12.84 165.656 12.84C164.509 12.84 163.536 13.1733 162.736 13.84C161.963 14.5067 161.483 15.4533 161.296 16.68H169.856ZM183.664 30.32C182.464 30.32 181.478 29.9733 180.704 29.28C179.958 28.56 179.584 27.68 179.584 26.64C179.584 25.5733 179.958 24.68 180.704 23.96C181.478 23.24 182.464 22.88 183.664 22.88C184.838 22.88 185.798 23.24 186.544 23.96C187.318 24.68 187.704 25.5733 187.704 26.64C187.704 27.68 187.318 28.56 186.544 29.28C185.798 29.9733 184.838 30.32 183.664 30.32Z" fill="#F16A23"/>
</svg>
