<svg width="98" height="130" viewBox="0 0 98 130" fill="none" xmlns="http://www.w3.org/2000/svg">
<path d="M92.1648 -0.00012207H28.6881C28.0208 -0.00012207 27.3645 0.271561 26.8927 0.743579L1.50072 26.1353C1.0287 26.6068 0.757019 27.2639 0.757019 27.9307V114.767C0.757019 117.567 3.0351 119.845 5.83521 119.845H36.7238L45.3827 128.504C46.3803 129.501 47.6902 130 49.0001 130C50.31 130 51.6202 129.501 52.6176 128.504L61.2764 119.845H92.1648C94.9649 119.845 97.243 117.567 97.243 114.767V5.07807C97.243 2.27796 94.9649 -0.00012207 92.1648 -0.00012207ZM26.149 8.66912V25.3916H9.42626L26.149 8.66912ZM49.0268 124.913C49.0121 124.928 48.9877 124.928 48.9735 124.913L33.8153 109.755C33.8034 109.743 33.8034 109.736 33.8034 109.728C33.8034 109.707 33.8204 109.69 33.8412 109.69H38.8437C39.5171 109.69 40.1628 109.422 40.6391 108.946C41.1152 108.47 41.3828 107.824 41.3828 107.151V88.868H56.6174V107.151C56.6174 108.553 57.7544 109.69 59.1565 109.69H64.1593C64.175 109.69 64.1799 109.695 64.1857 109.701C64.2004 109.716 64.2004 109.74 64.1857 109.754L49.0268 124.913ZM92.1648 114.767H66.3546L67.7767 113.345C69.7712 111.35 69.7712 108.105 67.7767 106.11C66.8104 105.144 65.5258 104.611 64.1593 104.611H61.6959V88.8675C61.6959 86.0674 59.4178 83.7893 56.6177 83.7893H41.3831C38.583 83.7893 36.3049 86.0674 36.3049 88.8675V104.611H33.8415C31.0205 104.611 28.7254 106.906 28.7254 109.727C28.7254 111.107 29.2668 112.401 30.237 113.358L31.6459 114.767H5.83547V30.4698H26.149C28.9491 30.4698 31.2272 28.1917 31.2272 25.3916V5.07807H92.1648V114.767Z" fill="#AFAFAF"/>
<path d="M79.4693 48.2443H29.9577C28.5556 48.2443 27.4186 49.381 27.4186 50.7834C27.4186 52.1857 28.5556 53.3225 29.9577 53.3225H79.469C80.8711 53.3225 82.0081 52.1857 82.0081 50.7834C82.0081 49.381 80.8714 48.2443 79.4693 48.2443Z" fill="#AFAFAF"/>
<path d="M79.4693 59.6708H18.531C17.1289 59.6708 15.9919 60.8075 15.9919 62.2099C15.9919 63.6122 17.1289 64.749 18.531 64.749H79.4693C80.8714 64.749 82.0084 63.6122 82.0084 62.2099C82.0084 60.8075 80.8714 59.6708 79.4693 59.6708Z" fill="#AFAFAF"/>
<path d="M18.531 36.8177C17.1289 36.8177 15.9919 37.9545 15.9919 39.3568C15.9919 40.7592 17.1289 41.8959 18.531 41.8959H79.4693C80.8714 41.8959 82.0084 40.7592 82.0084 39.3568C82.0084 37.9545 80.8714 36.8177 79.4693 36.8177H18.531Z" fill="#AFAFAF"/>
<path d="M49.0001 71.0969H18.531C17.1289 71.0969 15.9919 72.2337 15.9919 73.636C15.9919 75.0384 17.1289 76.1751 18.531 76.1751H49.0001C50.4022 76.1751 51.5392 75.0384 51.5392 73.636C51.5392 72.2337 50.4022 71.0969 49.0001 71.0969Z" fill="#AFAFAF"/>
<path d="M18.5327 53.3224C19.9348 53.3224 21.0718 52.1856 21.0718 50.7833C21.0718 49.381 19.9348 48.2443 18.5327 48.2443H18.5307C17.1286 48.2443 15.9926 49.381 15.9926 50.7833C15.9926 52.1856 17.1306 53.3224 18.5327 53.3224Z" fill="#AFAFAF"/>
</svg>
